<svg width="140" height="123" viewBox="0 0 140 123" fill="none" xmlns="http://www.w3.org/2000/svg">
<path fill-rule="evenodd" clip-rule="evenodd" d="M52.1037 0.75C23.389 0.75 0.0785332 18.1363 0.0785332 39.5825C0.0785332 59.1475 19.5112 75.3 44.7517 77.9688L34.0396 99.275L71.317 75.65C90.5215 69.9275 105.278 55.9538 105.278 39.5825C105.278 18.145 80.8272 0.75 52.1037 0.75Z" fill="#3A3A3A"/>
<path fill-rule="evenodd" clip-rule="evenodd" d="M139.906 78.5374C139.906 68.7024 130.589 58.5174 119.824 53.4424C116.806 70.5049 102.944 86.2111 81.0729 92.3536L70.6591 97.9711C74.6421 100.946 79.52 103.317 84.9945 104.866L116.911 122.112L105.48 106.572C124.93 104.604 139.906 92.8261 139.906 78.5374Z" fill="#3A3A3A"/>
</svg>
