<svg width="118" height="118" viewBox="0 0 118 118" fill="none" xmlns="http://www.w3.org/2000/svg">
<path d="M92.0167 44.5918L50.775 85.8335L26.0417 61.1002L34.2667 52.8752L50.775 69.3835L83.7917 36.3668L92.0167 44.5918ZM12.3333 59.0002C12.3333 45.4085 18.2833 33.2168 27.6167 24.7002L41.5 38.5835V3.5835H6.5L19.3333 16.4168C7.9 27.0335 0.666668 42.1418 0.666668 59.0002C0.666668 89.2752 23.7083 114.125 53.1667 117.042V105.259C30.1833 102.4 12.3333 82.7418 12.3333 59.0002ZM117.333 59.0002C117.333 28.7252 94.2917 3.87516 64.8333 0.958496V12.7418C87.8167 15.6002 105.667 35.2585 105.667 59.0002C105.667 72.5918 99.7167 84.7835 90.3833 93.3002L76.5 79.4168V114.417H111.5L98.6667 101.583C110.1 90.9668 117.333 75.8585 117.333 59.0002Z" fill="#3A3A3A"/>
</svg>
