<svg width="140" height="140" viewBox="0 0 140 140" fill="none" xmlns="http://www.w3.org/2000/svg">
<path d="M103.017 55.5919L61.775 96.8336L37.0417 72.1003L45.2667 63.8753L61.775 80.3836L94.7917 47.367L103.017 55.5919ZM23.3333 70.0003C23.3333 56.4086 29.2833 44.2169 38.6167 35.7003L52.5 49.5836V14.5836H17.5L30.3333 27.417C18.9 38.0336 11.6667 53.142 11.6667 70.0003C11.6667 100.275 34.7083 125.125 64.1667 128.042V116.259C41.1833 113.4 23.3333 93.742 23.3333 70.0003ZM128.333 70.0003C128.333 39.7253 105.292 14.8753 75.8333 11.9586V23.742C98.8167 26.6003 116.667 46.2586 116.667 70.0003C116.667 83.5919 110.717 95.7836 101.383 104.3L87.5 90.417V125.417H122.5L109.667 112.584C121.1 101.967 128.333 86.8586 128.333 70.0003Z" fill="#3A3A3A"/>
</svg>
