<svg width="140" height="140" viewBox="0 0 140 140" fill="none" xmlns="http://www.w3.org/2000/svg">
<path d="M112.438 40.6875L81.8125 10.0625C80.9375 9.1875 80.0625 8.75 78.75 8.75H35C30.1875 8.75 26.25 12.6875 26.25 17.5V122.5C26.25 127.312 30.1875 131.25 35 131.25H105C109.812 131.25 113.75 127.312 113.75 122.5V43.75C113.75 42.4375 113.312 41.5625 112.438 40.6875ZM78.75 19.25L103.25 43.75H78.75V19.25ZM105 122.5H35V17.5H70V43.75C70 48.5625 73.9375 52.5 78.75 52.5H105V122.5Z" fill="#3A3A3A"/>
<path d="M43.75 96.25H96.25V105H43.75V96.25Z" fill="#3A3A3A"/>
<path d="M43.75 70H96.25V78.75H43.75V70Z" fill="#3A3A3A"/>
</svg>
