<svg width="46" height="46" viewBox="0 0 46 46" fill="none" xmlns="http://www.w3.org/2000/svg">
<path fill-rule="evenodd" clip-rule="evenodd" d="M0.0833345 3.91267C0.0833345 2.89711 0.486763 1.92315 1.20487 1.20504C1.92298 0.48693 2.89694 0.0835012 3.9125 0.0835012H42.0833C42.5866 0.0826792 43.0851 0.181132 43.5503 0.373223C44.0155 0.565315 44.4382 0.847272 44.7943 1.20295C45.1503 1.55863 45.4328 1.98105 45.6254 2.44602C45.818 2.91099 45.9169 3.40939 45.9167 3.91267V42.0835C45.9172 42.5869 45.8185 43.0854 45.6262 43.5506C45.4339 44.0158 45.1517 44.4385 44.7959 44.7946C44.44 45.1506 44.0175 45.433 43.5524 45.6256C43.0873 45.8181 42.5888 45.9171 42.0854 45.9168H3.9125C3.40947 45.9168 2.91137 45.8177 2.44666 45.6252C1.98195 45.4326 1.55973 45.1504 1.20413 44.7946C0.848536 44.4388 0.566526 44.0164 0.374214 43.5516C0.181903 43.0868 0.0830609 42.5886 0.0833345 42.0856V3.91267ZM18.225 17.5585H24.4313V20.6752C25.3271 18.8835 27.6188 17.271 31.0625 17.271C37.6646 17.271 39.2292 20.8398 39.2292 27.3877V39.5168H32.5479V28.8793C32.5479 25.1502 31.6521 23.046 29.3771 23.046C26.2208 23.046 24.9083 25.3148 24.9083 28.8793V39.5168H18.225V17.5585ZM6.76667 39.2314H13.45V17.271H6.76667V39.2293V39.2314ZM14.4063 10.1085C14.4189 10.6807 14.317 11.2497 14.1068 11.7821C13.8965 12.3144 13.582 12.7994 13.1817 13.2086C12.7815 13.6177 12.3035 13.9428 11.776 14.1648C11.2484 14.3867 10.6818 14.501 10.1094 14.501C9.537 14.501 8.9704 14.3867 8.4428 14.1648C7.91521 13.9428 7.43727 13.6177 7.03702 13.2086C6.63677 12.7994 6.32228 12.3144 6.112 11.7821C5.90173 11.2497 5.7999 10.6807 5.8125 10.1085C5.83724 8.98528 6.3008 7.9164 7.10393 7.13076C7.90706 6.34513 8.98589 5.9052 10.1094 5.9052C11.2329 5.9052 12.3117 6.34513 13.1148 7.13076C13.918 7.9164 14.3815 8.98528 14.4063 10.1085Z" fill="#16332C"/>
</svg>
