<svg width="140" height="140" viewBox="0 0 140 140" fill="none" xmlns="http://www.w3.org/2000/svg">
<path d="M48.125 8.75H8.75V48.125H17.5V17.5H48.125V8.75Z" fill="#3A3A3A"/>
<path d="M8.75 91.875V131.25H48.125V122.5H17.5V91.875H8.75Z" fill="#3A3A3A"/>
<path d="M131.25 48.125V8.75H91.875V17.5H122.5V48.125H131.25Z" fill="#3A3A3A"/>
<path d="M91.875 131.25H131.25V91.875H122.5V122.5H91.875V131.25Z" fill="#3A3A3A"/>
<path d="M111.519 44.3187L72.1438 22.4437C71.4787 22.0598 70.7242 21.8576 69.9563 21.8576C69.1883 21.8576 68.4338 22.0598 67.7688 22.4437L28.3937 44.3187C27.7342 44.7097 27.1891 45.2671 26.8128 45.9352C26.4366 46.6032 26.2425 47.3583 26.25 48.125V91.875C26.2513 92.6502 26.4586 93.4112 26.8507 94.08C27.2427 94.7488 27.8055 95.3014 28.4812 95.6812L67.8563 117.556C68.5213 117.94 69.2758 118.142 70.0438 118.142C70.8117 118.142 71.5662 117.94 72.2313 117.556L111.606 95.6812C112.266 95.2903 112.811 94.7328 113.187 94.0648C113.563 93.3968 113.758 92.6416 113.75 91.875V48.125C113.749 47.3498 113.541 46.5888 113.149 45.92C112.757 45.2512 112.195 44.6986 111.519 44.3187ZM70 31.2375L100.363 48.125L70 65.0125L39.6375 48.125L70 31.2375ZM35 55.5625L65.625 72.5812V106.312L35 89.2937V55.5625ZM74.375 106.312V72.5812L105 55.5625V89.2937L74.375 106.312Z" fill="#3A3A3A"/>
</svg>
