<svg width="112" height="130" viewBox="0 0 112 130" fill="none" xmlns="http://www.w3.org/2000/svg">
<path d="M70.5 47.4999H82.1667V59.1666H70.5V47.4999ZM82.1667 24.1666H70.5V35.8333H82.1667V24.1666ZM47.1667 82.4999H58.8333V70.8333H47.1667V82.4999ZM58.8333 24.1666H47.1667V35.8333H58.8333V24.1666ZM47.1667 59.1666H58.8333V47.4999H47.1667V59.1666ZM35.5 24.1666H23.8333V35.8333H35.5V24.1666ZM35.5 47.4999H23.8333V59.1666H35.5V47.4999ZM67.875 117.5H58.8333V97.0832H47.1667V117.5H12.1667V12.4999H93.8333V59.3416C97.975 59.6916 101.942 60.9749 105.5 62.8416V0.833252H0.5V129.167H75.8083C73.4167 125.9 70.5 121.933 67.875 117.5ZM23.8333 105.833H35.5V94.1666H23.8333V105.833ZM35.5 70.8333H23.8333V82.4999H35.5V70.8333ZM111.333 91.2499C111.333 106.417 90.9167 129.167 90.9167 129.167C90.9167 129.167 70.5 106.417 70.5 91.2499C70.5 80.1666 79.8333 70.8333 90.9167 70.8333C102 70.8333 111.333 80.1666 111.333 91.2499ZM97.9167 91.8333C97.9167 88.3333 94.4167 84.8332 90.9167 84.8332C87.4167 84.8332 83.9167 87.7499 83.9167 91.8333C83.9167 95.3333 86.8333 98.8332 90.9167 98.8332C95 98.8332 98.5 95.3333 97.9167 91.8333Z" fill="#3A3A3A"/>
</svg>
