<svg width="140" height="140" viewBox="0 0 140 140" fill="none" xmlns="http://www.w3.org/2000/svg">
<path d="M122.5 52.5H87.5V17.5H122.5V52.5ZM96.25 43.75H113.75V26.25H96.25V43.75Z" fill="#3A3A3A"/>
<path d="M74.375 65.625V39.375H39.375V100.625H100.625V65.625H74.375ZM48.125 48.125H65.625V65.625H48.125V48.125ZM65.625 91.875H48.125V74.375H65.625V91.875ZM91.875 91.875H74.375V74.375H91.875V91.875Z" fill="#3A3A3A"/>
<path d="M113.75 122.5H26.25C23.9301 122.498 21.7058 121.575 20.0654 119.935C18.4249 118.294 17.5023 116.07 17.5 113.75V26.25C17.5023 23.9301 18.4249 21.7058 20.0654 20.0654C21.7058 18.4249 23.9301 17.5023 26.25 17.5H70V26.25H26.25V113.75H113.75V70H122.5V113.75C122.498 116.07 121.575 118.294 119.935 119.935C118.294 121.575 116.07 122.498 113.75 122.5Z" fill="#3A3A3A"/>
</svg>
