<svg width="118" height="118" viewBox="0 0 118 118" fill="none" xmlns="http://www.w3.org/2000/svg">
<path d="M59 0.666748C26.8 0.666748 0.666687 26.8001 0.666687 59.0001C0.666687 91.2001 26.8 117.333 59 117.333C91.2 117.333 117.333 91.2001 117.333 59.0001C117.333 26.8001 91.2 0.666748 59 0.666748ZM35.6667 82.3334C29.25 82.3334 24 77.0834 24 70.6668C24 64.2501 29.25 59.0001 35.6667 59.0001C42.0834 59.0001 47.3334 64.2501 47.3334 70.6668C47.3334 77.0834 42.0834 82.3334 35.6667 82.3334ZM59 47.3334C52.5834 47.3334 47.3334 42.0834 47.3334 35.6668C47.3334 29.2501 52.5834 24.0001 59 24.0001C65.4167 24.0001 70.6667 29.2501 70.6667 35.6668C70.6667 42.0834 65.4167 47.3334 59 47.3334ZM82.3334 82.3334C75.9167 82.3334 70.6667 77.0834 70.6667 70.6668C70.6667 64.2501 75.9167 59.0001 82.3334 59.0001C88.75 59.0001 94 64.2501 94 70.6668C94 77.0834 88.75 82.3334 82.3334 82.3334Z" fill="#3A3A3A"/>
</svg>
